<?xml version="1.0" standalone="no"?>
<!DOCTYPE svg PUBLIC "-//W3C//DTD SVG 20010904//EN"
 "http://www.w3.org/TR/2001/REC-SVG-20010904/DTD/svg10.dtd">
<svg version="1.0" xmlns="http://www.w3.org/2000/svg"
 width="512.000000pt" height="512.000000pt" viewBox="0 0 512.000000 512.000000"
 preserveAspectRatio="xMidYMid meet">

<g transform="translate(0.000000,512.000000) scale(0.100000,-0.100000)"
fill="#000000" stroke="none">
<path d="M2325 5113 c-193 -13 -442 -52 -646 -103 -239 -59 -543 -171 -591
-217 -54 -52 -56 -80 -21 -365 l6 -48 -140 0 -141 0 -4 53 c-3 33 -13 65 -26
84 -64 90 -209 78 -256 -21 -24 -50 -24 -472 0 -522 47 -99 192 -111 256 -21
12 16 23 51 26 79 l5 48 155 -2 156 -3 32 -300 c18 -165 34 -319 37 -342 l5
-43 -143 0 -142 0 -5 51 c-12 124 -139 186 -233 115 -63 -48 -66 -68 -63 -331
3 -218 4 -235 24 -261 37 -50 70 -68 124 -68 81 0 139 56 148 143 l5 51 158 0
c88 0 159 -1 159 -3 0 -1 16 -149 35 -327 19 -178 35 -335 35 -347 0 -23 -1
-23 -139 -23 l-138 0 -5 49 c-3 27 -14 62 -26 78 -64 90 -209 78 -256 -21 -24
-50 -24 -472 0 -522 47 -99 192 -111 256 -21 13 19 23 51 26 84 l5 53 156 -2
156 -3 15 -125 c15 -121 19 -131 98 -309 l82 -184 0 -682 0 -682 23 -34 c49
-74 -18 -69 1039 -67 945 3 947 3 975 24 15 12 37 36 48 55 19 33 20 57 25
729 l5 695 77 170 c74 164 77 174 88 285 7 63 14 118 17 123 2 4 73 7 157 7
l154 0 4 -53 c3 -33 13 -65 26 -84 64 -90 209 -78 256 21 24 50 24 472 0 522
-47 99 -192 111 -256 21 -12 -16 -23 -51 -26 -78 l-5 -49 -138 0 c-132 0 -139
1 -139 20 0 11 16 165 35 342 19 178 35 326 35 331 0 4 71 7 159 7 l158 0 5
-51 c9 -87 67 -143 148 -143 54 0 87 18 124 68 20 26 21 41 21 276 0 235 -1
250 -21 276 -36 49 -70 68 -123 68 -85 0 -151 -70 -151 -159 l0 -35 -145 0
-145 0 5 23 c2 12 18 157 35 322 17 165 33 310 35 323 5 22 8 22 159 22 l153
0 5 -49 c3 -27 14 -62 26 -78 64 -90 209 -78 256 21 24 50 24 472 0 522 -47
99 -192 111 -256 21 -13 -19 -23 -51 -26 -84 l-4 -53 -141 0 -140 0 6 48 c20
153 29 272 23 295 -14 59 -61 93 -194 145 -356 139 -678 213 -1056 242 -119 9
-383 11 -501 3z m645 -318 c149 -20 298 -49 435 -85 114 -30 345 -106 357
-118 4 -4 -57 -608 -136 -1342 l-144 -1335 -57 -127 -58 -128 -807 0 -807 0
-58 127 -57 128 -143 1335 c-79 734 -141 1338 -137 1342 11 10 195 72 317 107
191 54 446 98 660 115 107 8 525 -4 635 -19z m-860 -3965 l0 -530 -150 0 -150
0 0 530 0 530 150 0 150 0 0 -530z m600 0 l0 -530 -150 0 -150 0 0 530 0 530
150 0 150 0 0 -530z m608 -2 l2 -528 -155 0 -155 0 0 530 0 531 153 -3 152 -3
3 -527z"/>
<path d="M1778 4359 c-43 -22 -78 -81 -78 -129 0 -50 35 -107 80 -130 21 -11
53 -20 70 -20 76 0 150 74 150 150 0 50 -35 107 -80 130 -49 25 -94 25 -142
-1z"/>
<path d="M3198 4359 c-43 -22 -78 -81 -78 -129 0 -17 9 -49 20 -70 23 -45 80
-80 130 -80 50 0 107 35 130 80 11 21 20 53 20 70 0 50 -35 107 -80 130 -49
25 -94 25 -142 -1z"/>
<path d="M1878 3369 c-43 -22 -78 -81 -78 -129 0 -50 35 -107 80 -130 21 -11
53 -20 70 -20 76 0 150 74 150 150 0 50 -35 107 -80 130 -49 25 -94 25 -142
-1z"/>
<path d="M3098 3369 c-43 -22 -78 -81 -78 -129 0 -50 35 -107 80 -130 21 -11
53 -20 70 -20 17 0 49 9 70 20 45 23 80 80 80 130 0 50 -35 107 -80 130 -49
25 -94 25 -142 -1z"/>
<path d="M1978 2369 c-43 -22 -78 -81 -78 -129 0 -50 35 -107 80 -130 21 -11
53 -20 70 -20 76 0 150 74 150 150 0 50 -35 107 -80 130 -49 25 -94 25 -142
-1z"/>
<path d="M2998 2369 c-43 -22 -78 -81 -78 -129 0 -17 9 -49 20 -70 23 -45 80
-80 130 -80 76 0 150 74 150 150 0 50 -35 107 -80 130 -49 25 -94 25 -142 -1z"/>
</g>
</svg>
